<svg id="Capa_1" data-name="Capa 1" xmlns="http://www.w3.org/2000/svg" xmlns:xlink="http://www.w3.org/1999/xlink" viewBox="0 0 1027.67 1040"><defs><style>.cls-1{fill:url(#Degradado_sin_nombre_3);}.cls-2{fill:#ff7f18;}.cls-3,.cls-4{fill:#fff;opacity:0.4;}.cls-4{font-size:180px;font-family:Oswald-Regular, Oswald;}</style><radialGradient id="Degradado_sin_nombre_3" cx="-69.96" cy="591.3" r="0.32" gradientTransform="matrix(2242.92, 0, 0, -2253.96, 157272.95, 1333016.33)" gradientUnits="userSpaceOnUse"><stop offset="0" stop-color="#423325" stop-opacity="0.98"/><stop offset="1" stop-color="#1c0a00"/></radialGradient></defs><title>ilustrator-r%</title><path class="cls-1" d="M43,44.32H985V995.43H43Z" transform="translate(-0.16 0.13)"/><path class="cls-2" d="M43,44.32H985V995.43H43ZM.16,1039.87H1027.82V-.13H.16ZM673.28,370.54c0-3.56,1.28-5.33,5.14-5.33h67.23c3.42,0,5.14,1.33,5.14,5.33V721.21c0,3.55-.86,5.33-5.14,5.33H679.27c-4.28,0-5.57-2.22-5.57-5.78V370.54h-.43Zm-4.71-100.89c0-28.44,19.27-45.33,43.68-45.33,26.12,0,43.68,18.22,43.68,45.33,0,29.33-18.41,45.33-44.53,45.33C686.55,315,668.57,299,668.57,269.65ZM475.88,516.76c-12-49.33-40.25-156.89-51-208.89h-.86c-9,52-31.69,140-49.67,208.89Zm-119,72L323,722.1c-.86,3.55-2.14,4.44-6.42,4.44H253.65c-4.28,0-5.14-1.33-4.28-6.67L371,278.1c2.14-8,3.43-15.11,4.28-36.89,0-3.11,1.28-4.44,3.43-4.44H468.6c3,0,4.28.89,5.14,4.44L609.91,720.76c.86,3.55,0,5.78-3.43,5.78H535.4c-3.43,0-5.57-.89-6.42-4L493.87,588.76h-137Z" transform="translate(-0.16 0.13)"/><rect class="cls-3" x="1.09" y="413.16" width="1025.61" height="625.65"/><text class="cls-4" transform="translate(49.85 208.13)">60%</text></svg>