<svg id="Capa_1" data-name="Capa 1" xmlns="http://www.w3.org/2000/svg" xmlns:xlink="http://www.w3.org/1999/xlink" viewBox="0 0 1027.67 1040.06"><defs><style>.cls-1{fill:url(#Degradado_sin_nombre_2);}.cls-2{fill:#31c5f0;}.cls-3,.cls-4{fill:#fff;opacity:0.4;}.cls-4{font-size:180px;font-family:Oswald-Regular, Oswald;}</style><radialGradient id="Degradado_sin_nombre_2" cx="-69.97" cy="591.25" r="0.36" gradientTransform="matrix(1981.1, 0, 0, -1990.97, 138973.35, 1177427.23)" gradientUnits="userSpaceOnUse"><stop offset="0" stop-color="#34364e" stop-opacity="0.98"/><stop offset="1" stop-color="#0c0824"/></radialGradient></defs><title>photoshop-r%</title><path class="cls-1" d="M42.82,44.11h942V995.28h-942Z" transform="translate(0 0.33)"/><path class="cls-2" d="M42.82,44.11h942V995.28h-942ZM0,1039.73H1027.67V-.33H0ZM692.82,426.36c-33.83,0-45.39,17.78-45.39,32.45,0,16,7.71,27.11,53.1,51.56,67.23,33.78,88.21,66.23,88.21,113.79,0,71.11-52.24,109.34-122.89,109.34-37.25,0-69.37-8-87.78-19.11-3-1.33-3.43-3.56-3.43-7.11V641.93c0-4.44,2.14-5.78,5.14-3.56a154.7,154.7,0,0,0,86.07,26.22c33.83,0,48-14.67,48-34.67,0-16-9.85-30.22-53.1-53.34-60.8-30.22-86.07-60.89-86.07-112,0-57.34,43.25-104.9,118.18-104.9,36.82,0,62.52,5.78,76.65,12.45,3.43,2.22,4.28,5.78,4.28,8.89v60.89c0,3.56-2.14,5.78-6.42,4.44-18.84-12.44-46.67-20-74.5-20ZM324.57,479.25c9.85.89,17.56.89,34.68.89,50.1,0,97.2-18.22,97.2-88.89,0-56.45-33.83-84.9-90.78-84.9-17.13,0-33.4.89-41.11,1.33Zm-76.22-236c0-3.11,6-5.33,9.42-5.33,27.41-1.33,68.08-2.22,110.47-2.22,118.61,0,164.85,67.56,164.85,153.79,0,112.89-78.79,161.34-175.56,161.34-16.27,0-21.84-.89-33.4-.89V720.6c0,3.56-1.28,5.33-5.14,5.33H253.49c-3.43,0-5.14-1.33-5.14-5.33V243.24Z" transform="translate(0 0.33)"/><rect class="cls-3" x="1.25" y="413.37" width="1025.61" height="625.65"/><text class="cls-4" transform="translate(50.01 208.33)">60%</text></svg>