<svg id="Capa_1" data-name="Capa 1" xmlns="http://www.w3.org/2000/svg" xmlns:xlink="http://www.w3.org/1999/xlink" viewBox="0 0 1027.92 1039.92"><defs><style>.cls-1{fill:url(#Degradado_sin_nombre_4);}.cls-2{fill:#e579ff;}.cls-3,.cls-4{fill:#fff;opacity:0.4;}.cls-4{font-size:180px;font-family:Oswald-Regular, Oswald;}</style><radialGradient id="Degradado_sin_nombre_4" cx="-70.14" cy="591.44" r="0.76" gradientTransform="matrix(942.26, 0, 0, -946.6, 66447.74, 560109.95)" gradientUnits="userSpaceOnUse"><stop offset="0" stop-color="#4b2d4f" stop-opacity="0.98"/><stop offset="1" stop-color="#180024"/></radialGradient></defs><title>premier-r%</title><path class="cls-1" d="M42.91,44.43H985.17v951H42.91Z" transform="translate(-0.08 0.01)"/><path class="cls-2" d="M42.91,44.43H985.17v951H42.91ZM.08,1039.92H1028V0H.08ZM616.83,439.07c0-5.33,0-18.22-2.14-43.11,0-3.55.43-4.44,3.43-5.78,26.13-11.11,87.37-30.66,156.76-30.66,3.43,0,5.14.89,5.14,4.44v64.44c0,3.55-1.28,4.44-4.71,4.44-27-1.33-66,2.22-80.95,8.89v280c0,3.55-1.28,5.33-5.14,5.33H622c-3.43,0-5.14-1.33-5.14-5.33V439.07ZM342.72,479.51c9.85.89,17.56.89,34.69.89,50.11,0,97.22-18.22,97.22-88.88,0-56.44-33.41-84.88-90.8-84.88-17.13,0-33.41.89-41.12,1.33V479.51Zm-75.81-236c0-3.11.86-5.33,4.28-5.33,27.41-1.33,67.67-2.22,110.07-2.22,118.64,0,170.46,67.55,170.46,154.21,0,112.88-78.81,161.32-175.6,161.32-16.28,0-21.84-.89-33.41-.89V721.27c0,3.55-1.28,5.33-5.14,5.33h-66c-3.43,0-5.14-1.33-5.14-5.33V243.53h.43Z" transform="translate(-0.08 0.01)"/><rect class="cls-3" x="1.17" y="648.31" width="1025.61" height="390.39"/><text class="cls-4" transform="translate(49.92 208.01)">30%</text></svg>